# xmcd
#
# Track frame offsets: 
#        151
#        33182
#        55232
#        78482
#        97382
#        120182
#        139232
#        161357
#        187682
#
# Disc length: 3206 seconds
#
# Revision: 0
# Processed by: cddbd v1.4b42PL1 Copyright (c) Steve Scherf et al.
# Submitted via: ExactAudioCopy v0.90a11
#
DISCID=6a0c8409
DTITLE=The Black Crowes - 3-10-99 Disc One
DYEAR=1900
DGENRE=
TTITLE0=Remedy
TTITLE1=Go Faster
TTITLE2=Sting Me
TTITLE3=Kickin' My Heart Around
TTITLE4=Gone
TTITLE5=Horsehead
TTITLE6=A Conspiracy
TTITLE7=Descending
TTITLE8=My Morning Song
EXTD=
EXTT0=
EXTT1=
EXTT2=
EXTT3=
EXTT4=
EXTT5=
EXTT6=
EXTT7=
EXTT8=
PLAYORDER=
